# xmcd CD database file generated by OrangeCD 5.2
#
# Track frame offsets:
#	150
#	15865
#	32390
#	49940
#	68642
#	85642
#	98340
#	116412
#	125952
#	142472
#	157675
#	172592
#	184350
#	197212
#	216882
#	230777
#	242112
#	255050
#	267780
#	281232
#
# Disc length: 3961 seconds
#
# Revision: 3
# Processed by: cddbd v1.5.1PL0 Copyright (c) Steve Scherf et al.
# Submitted via: OrangeCD 5.2
#
DISCID=0d0f7714
DTITLE=Various Artist - New Country Line Dancing
DYEAR=1997
DGENRE=Country
TTITLE0=Capricorn - Line Dancin' Days
TTITLE1=Watermelon Henry - Goin' Country
TTITLE2=Martin White - There You Go
TTITLE3=Simon Richmond - E.J.'s Bar
TTITLE4=Watermelon Henry - Burnin' Fire
TTITLE5=T J McCall - Country Music Hall Of Fame
TTITLE6=Bobby Lee - This Don't Feel Like Dancin'
TTITLE7=Hollywood Hillbillies - No Honky Tonks In Heaven
TTITLE8=Shot to Pieces - Too Easy
TTITLE9=Simon Richmond - Good Times Come Around
TTITLE10=Watermelon Henry - Love My Car
TTITLE11=Chris Sayer - Love Kept Its Hold On My Heart
TTITLE12=Quinton Horton - I Learnt A Thing Or Two
TTITLE13=P Coombes - Ain't Life Wonderful
TTITLE14=Watermelon Henry - Louisiana
TTITLE15=Somon Richmond - Daddy's Got His Blue Jeans On
TTITLE16=Hollywood Hillbillies - 3 Time Loser
TTITLE17=Northern Lights - Situation Vacant
TTITLE18=Anton and The Buzz Band - Country Married Rock N Roll
TTITLE19=Simon Richmond - Let's Hear It For The Ladies
EXTD=
EXTT0=
EXTT1=
EXTT2=
EXTT3=
EXTT4=
EXTT5=
EXTT6=
EXTT7=
EXTT8=
EXTT9=
EXTT10=
EXTT11=
EXTT12=
EXTT13=
EXTT14=
EXTT15=
EXTT16=
EXTT17=
EXTT18=
EXTT19=
PLAYORDER=
